<!-- Lucide v1.49.0 (ISC licence, https://lucide.dev) - upstream path data, untouched.
     Inlined copies live in js/ui/core.js PATHS (file:// cannot fetch this file); regenerate with node tests/make-lucide.js -->
<svg xmlns="http://www.w3.org/2000/svg" fill="none" stroke="currentColor" stroke-width="2" stroke-linecap="round" stroke-linejoin="round">
  <symbol id="i-dashboard" viewBox="0 0 24 24"><rect width="7" height="9" x="3" y="3" rx="1"/>  <rect width="7" height="5" x="14" y="3" rx="1"/>  <rect width="7" height="9" x="14" y="12" rx="1"/>  <rect width="7" height="5" x="3" y="16" rx="1"/></symbol>
  <symbol id="i-lots" viewBox="0 0 24 24"><path d="M11 21.73a2 2 0 0 0 2 0l7-4A2 2 0 0 0 21 16V8a2 2 0 0 0-1-1.73l-7-4a2 2 0 0 0-2 0l-7 4A2 2 0 0 0 3 8v8a2 2 0 0 0 1 1.73z"/>  <path d="M12 22V12"/>  <polyline points="3.29 7 12 12 20.71 7"/>  <path d="m7.5 4.27 9 5.15"/></symbol>
  <symbol id="i-settings" viewBox="0 0 24 24"><path d="M9.671 4.136a2.34 2.34 0 0 1 4.659 0 2.34 2.34 0 0 0 3.319 1.915 2.34 2.34 0 0 1 2.33 4.033 2.34 2.34 0 0 0 0 3.831 2.34 2.34 0 0 1-2.33 4.033 2.34 2.34 0 0 0-3.319 1.915 2.34 2.34 0 0 1-4.659 0 2.34 2.34 0 0 0-3.32-1.915 2.34 2.34 0 0 1-2.33-4.033 2.34 2.34 0 0 0 0-3.831A2.34 2.34 0 0 1 6.35 6.051a2.34 2.34 0 0 0 3.319-1.915"/>  <circle cx="12" cy="12" r="3"/></symbol>
  <symbol id="i-search" viewBox="0 0 24 24"><path d="m21 21-4.34-4.34"/>  <circle cx="11" cy="11" r="8"/></symbol>
  <symbol id="i-folder" viewBox="0 0 24 24"><path d="M20 20a2 2 0 0 0 2-2V8a2 2 0 0 0-2-2h-7.9a2 2 0 0 1-1.69-.9L9.6 3.9A2 2 0 0 0 7.93 3H4a2 2 0 0 0-2 2v13a2 2 0 0 0 2 2Z"/></symbol>
  <symbol id="i-alert" viewBox="0 0 24 24"><path d="m21.73 18-8-14a2 2 0 0 0-3.48 0l-8 14A2 2 0 0 0 4 21h16a2 2 0 0 0 1.73-3"/>  <path d="M12 9v4"/>  <path d="M12 17h.01"/></symbol>
  <symbol id="i-check" viewBox="0 0 24 24"><path d="M20 6 9 17l-5-5"/></symbol>
  <symbol id="i-close" viewBox="0 0 24 24"><path d="M18 6 6 18"/>  <path d="m6 6 12 12"/></symbol>
  <symbol id="i-refresh" viewBox="0 0 24 24"><path d="M3 12a9 9 0 0 1 9-9 9.75 9.75 0 0 1 6.74 2.74L21 8"/>  <path d="M21 3v5h-5"/>  <path d="M21 12a9 9 0 0 1-9 9 9.75 9.75 0 0 1-6.74-2.74L3 16"/>  <path d="M8 16H3v5"/></symbol>
  <symbol id="i-download" viewBox="0 0 24 24"><path d="M12 15V3"/>  <path d="M21 15v4a2 2 0 0 1-2 2H5a2 2 0 0 1-2-2v-4"/>  <path d="m7 10 5 5 5-5"/></symbol>
  <symbol id="i-upload" viewBox="0 0 24 24"><path d="M12 3v12"/>  <path d="m17 8-5-5-5 5"/>  <path d="M21 15v4a2 2 0 0 1-2 2H5a2 2 0 0 1-2-2v-4"/></symbol>
  <symbol id="i-save" viewBox="0 0 24 24"><path d="M15.2 3a2 2 0 0 1 1.4.6l3.8 3.8a2 2 0 0 1 .6 1.4V19a2 2 0 0 1-2 2H5a2 2 0 0 1-2-2V5a2 2 0 0 1 2-2z"/>  <path d="M17 21v-7a1 1 0 0 0-1-1H8a1 1 0 0 0-1 1v7"/>  <path d="M7 3v4a1 1 0 0 0 1 1h7"/></symbol>
  <symbol id="i-sun" viewBox="0 0 24 24"><circle cx="12" cy="12" r="4"/>  <path d="M12 2v2"/>  <path d="M12 20v2"/>  <path d="m4.93 4.93 1.41 1.41"/>  <path d="m17.66 17.66 1.41 1.41"/>  <path d="M2 12h2"/>  <path d="M20 12h2"/>  <path d="m6.34 17.66-1.41 1.41"/>  <path d="m19.07 4.93-1.41 1.41"/></symbol>
  <symbol id="i-moon" viewBox="0 0 24 24"><path d="M20.985 12.486a9 9 0 1 1-9.473-9.472c.405-.022.617.46.402.803a6 6 0 0 0 8.268 8.268c.344-.215.825-.004.803.401"/></symbol>
  <symbol id="i-contrast" viewBox="0 0 24 24"><circle cx="12" cy="12" r="10"/>  <path d="M12 18a6 6 0 0 0 0-12v12z"/></symbol>
  <symbol id="i-user" viewBox="0 0 24 24"><path d="M19 21v-2a4 4 0 0 0-4-4H9a4 4 0 0 0-4 4v2"/>  <circle cx="12" cy="7" r="4"/></symbol>
  <symbol id="i-inbox" viewBox="0 0 24 24"><polyline points="22 12 16 12 14 15 10 15 8 12 2 12"/>  <path d="M5.45 5.11 2 12v6a2 2 0 0 0 2 2h16a2 2 0 0 0 2-2v-6l-3.45-6.89A2 2 0 0 0 16.76 4H7.24a2 2 0 0 0-1.79 1.11z"/></symbol>
  <symbol id="i-clock" viewBox="0 0 24 24"><circle cx="12" cy="12" r="10"/>  <path d="M12 6v6l4 2"/></symbol>
  <symbol id="i-archive" viewBox="0 0 24 24"><rect width="20" height="5" x="2" y="3" rx="1"/>  <path d="M4 8v11a2 2 0 0 0 2 2h12a2 2 0 0 0 2-2V8"/>  <path d="M10 12h4"/></symbol>
  <symbol id="i-restore" viewBox="0 0 24 24"><path d="M3 12a9 9 0 1 0 9-9 9.75 9.75 0 0 0-6.74 2.74L3 8"/>  <path d="M3 3v5h5"/>  <path d="M12 7v5l4 2"/></symbol>
  <symbol id="i-edit" viewBox="0 0 24 24"><path d="M21.174 6.812a1 1 0 0 0-3.986-3.987L3.842 16.174a2 2 0 0 0-.5.83l-1.321 4.352a.5.5 0 0 0 .623.622l4.353-1.32a2 2 0 0 0 .83-.497z"/>  <path d="m15 5 4 4"/></symbol>
  <symbol id="i-move" viewBox="0 0 24 24"><path d="M12 2v20"/>  <path d="m15 19-3 3-3-3"/>  <path d="m19 9 3 3-3 3"/>  <path d="M2 12h20"/>  <path d="m5 9-3 3 3 3"/>  <path d="m9 5 3-3 3 3"/></symbol>
  <symbol id="i-plus" viewBox="0 0 24 24"><path d="M5 12h14"/>  <path d="M12 5v14"/></symbol>
  <symbol id="i-filter" viewBox="0 0 24 24"><path d="M10 20a1 1 0 0 0 .553.895l2 1A1 1 0 0 0 14 21v-7a2 2 0 0 1 .517-1.341L21.74 4.67A1 1 0 0 0 21 3H3a1 1 0 0 0-.742 1.67l7.225 7.989A2 2 0 0 1 10 14z"/></symbol>
  <symbol id="i-trash" viewBox="0 0 24 24"><path d="M10 11v6"/>  <path d="M14 11v6"/>  <path d="M19 6v14a2 2 0 0 1-2 2H7a2 2 0 0 1-2-2V6"/>  <path d="M3 6h18"/>  <path d="M8 6V4a2 2 0 0 1 2-2h4a2 2 0 0 1 2 2v2"/></symbol>
  <symbol id="i-home" viewBox="0 0 24 24"><path d="M15 21v-8a1 1 0 0 0-1-1h-4a1 1 0 0 0-1 1v8"/>  <path d="M3 10a2 2 0 0 1 .709-1.528l7-6a2 2 0 0 1 2.582 0l7 6A2 2 0 0 1 21 10v9a2 2 0 0 1-2 2H5a2 2 0 0 1-2-2z"/></symbol>
  <symbol id="i-chevron_left" viewBox="0 0 24 24"><path d="m15 18-6-6 6-6"/></symbol>
  <symbol id="i-expand" viewBox="0 0 24 24"><path d="M15 3h6v6"/>  <path d="m21 3-7 7"/>  <path d="m3 21 7-7"/>  <path d="M9 21H3v-6"/></symbol>
  <symbol id="i-info" viewBox="0 0 24 24"><circle cx="12" cy="12" r="10"/>  <path d="M12 16v-4"/>  <path d="M12 8h.01"/></symbol>
  <symbol id="i-lock" viewBox="0 0 24 24"><rect width="18" height="11" x="3" y="11" rx="2" ry="2"/>  <path d="M7 11V7a5 5 0 0 1 10 0v4"/></symbol>
  <symbol id="i-activity" viewBox="0 0 24 24"><path d="M22 12h-2.48a2 2 0 0 0-1.93 1.46l-2.35 8.36a.25.25 0 0 1-.48 0L9.24 2.18a.25.25 0 0 0-.48 0l-2.35 8.36A2 2 0 0 1 4.49 12H2"/></symbol>
  <symbol id="i-gauge" viewBox="0 0 24 24"><path d="m12 14 4-4"/>  <path d="M3.34 19a10 10 0 1 1 17.32 0"/></symbol>
  <symbol id="i-chart" viewBox="0 0 24 24"><path d="M3 3v16a2 2 0 0 0 2 2h16"/>  <path d="M18 17V9"/>  <path d="M13 17V5"/>  <path d="M8 17v-3"/></symbol>
  <symbol id="i-analytics" viewBox="0 0 24 24"><path d="M3 3v16a2 2 0 0 0 2 2h16"/>  <path d="M18 17V9"/>  <path d="M13 17V5"/>  <path d="M8 17v-3"/></symbol>
  <symbol id="i-grid" viewBox="0 0 24 24"><path d="M12 3v18"/>  <path d="M3 12h18"/>  <rect x="3" y="3" width="18" height="18" rx="2"/></symbol>
  <symbol id="i-chevron_down" viewBox="0 0 24 24"><path d="m6 9 6 6 6-6"/></symbol>
  <symbol id="i-chevron_right" viewBox="0 0 24 24"><path d="m9 18 6-6-6-6"/></symbol>
  <symbol id="i-sliders" viewBox="0 0 24 24"><path d="M10 5H3"/>  <path d="M12 19H3"/>  <path d="M14 3v4"/>  <path d="M16 17v4"/>  <path d="M21 12h-9"/>  <path d="M21 19h-5"/>  <path d="M21 5h-7"/>  <path d="M8 10v4"/>  <path d="M8 12H3"/></symbol>
  <symbol id="i-ruler" viewBox="0 0 24 24"><path d="M21.3 15.3a2.4 2.4 0 0 1 0 3.4l-2.6 2.6a2.4 2.4 0 0 1-3.4 0L2.7 8.7a2.41 2.41 0 0 1 0-3.4l2.6-2.6a2.41 2.41 0 0 1 3.4 0Z"/>  <path d="m14.5 12.5 2-2"/>  <path d="m11.5 9.5 2-2"/>  <path d="m8.5 6.5 2-2"/>  <path d="m17.5 15.5 2-2"/></symbol>
  <symbol id="i-requests" viewBox="0 0 24 24"><rect width="8" height="4" x="8" y="2" rx="1" ry="1"/>  <path d="M16 4h2a2 2 0 0 1 2 2v14a2 2 0 0 1-2 2H6a2 2 0 0 1-2-2V6a2 2 0 0 1 2-2h2"/>  <path d="M12 11h4"/>  <path d="M12 16h4"/>  <path d="M8 11h.01"/>  <path d="M8 16h.01"/></symbol>
  <symbol id="i-request_new" viewBox="0 0 24 24"><path d="M6 22a2 2 0 0 1-2-2V4a2 2 0 0 1 2-2h8a2.4 2.4 0 0 1 1.704.706l3.588 3.588A2.4 2.4 0 0 1 20 8v12a2 2 0 0 1-2 2z"/>  <path d="M14 2v5a1 1 0 0 0 1 1h5"/>  <path d="M9 15h6"/>  <path d="M12 18v-6"/></symbol>
  <symbol id="i-board" viewBox="0 0 24 24"><path d="M5 3v14"/>  <path d="M12 3v8"/>  <path d="M19 3v18"/></symbol>
  <symbol id="i-bell" viewBox="0 0 24 24"><path d="M10.268 21a2 2 0 0 0 3.464 0"/>  <path d="M3.262 15.326A1 1 0 0 0 4 17h16a1 1 0 0 0 .74-1.673C19.41 13.956 18 12.499 18 8A6 6 0 0 0 6 8c0 4.499-1.411 5.956-2.738 7.326"/></symbol>
  <symbol id="i-copy" viewBox="0 0 24 24"><rect width="14" height="14" x="8" y="8" rx="2" ry="2"/>  <path d="M4 16c-1.1 0-2-.9-2-2V4c0-1.1.9-2 2-2h10c1.1 0 2 .9 2 2"/></symbol>
  <symbol id="i-wrench" viewBox="0 0 24 24"><path d="M14.7 6.3a1 1 0 0 0 0 1.4l1.6 1.6a1 1 0 0 0 1.4 0l3.106-3.105c.32-.322.863-.22.983.218a6 6 0 0 1-8.259 7.057l-7.91 7.91a1 1 0 0 1-2.999-3l7.91-7.91a6 6 0 0 1 7.057-8.259c.438.12.54.662.219.984z"/></symbol>
  <symbol id="i-users" viewBox="0 0 24 24"><path d="M16 21v-2a4 4 0 0 0-4-4H6a4 4 0 0 0-4 4v2"/>  <path d="M16 3.128a4 4 0 0 1 0 7.744"/>  <path d="M22 21v-2a4 4 0 0 0-3-3.87"/>  <circle cx="9" cy="7" r="4"/></symbol>
  <symbol id="i-calendar" viewBox="0 0 24 24"><path d="M8 2v3"/>  <path d="M16 2v3"/>  <rect x="3" y="3" width="18" height="18" rx="2"/>  <path d="M3 9h18"/></symbol>
  <symbol id="i-tag" viewBox="0 0 24 24"><path d="M12.586 2.586A2 2 0 0 0 11.172 2H4a2 2 0 0 0-2 2v7.172a2 2 0 0 0 .586 1.414l8.704 8.704a2.426 2.426 0 0 0 3.42 0l6.58-6.58a2.426 2.426 0 0 0 0-3.42z"/>  <circle cx="7.5" cy="7.5" r=".5" fill="currentColor"/></symbol>
  <symbol id="i-keyboard" viewBox="0 0 24 24"><path d="M10 8h.01"/>  <path d="M12 12h.01"/>  <path d="M14 8h.01"/>  <path d="M16 12h.01"/>  <path d="M18 8h.01"/>  <path d="M6 8h.01"/>  <path d="M7 16h10"/>  <path d="M8 12h.01"/>  <rect width="20" height="16" x="2" y="4" rx="2"/></symbol>
  <symbol id="i-mail" viewBox="0 0 24 24"><path d="m22 7-8.991 5.727a2 2 0 0 1-2.009 0L2 7"/>  <rect x="2" y="4" width="20" height="16" rx="2"/></symbol>
  <symbol id="i-plus-circle" viewBox="0 0 24 24"><circle cx="12" cy="12" r="10"/>  <path d="M8 12h8"/>  <path d="M12 8v8"/></symbol>
  <symbol id="i-list" viewBox="0 0 24 24"><path d="M3 5h.01"/>  <path d="M3 12h.01"/>  <path d="M3 19h.01"/>  <path d="M8 5h13"/>  <path d="M8 12h13"/>  <path d="M8 19h13"/></symbol>
  <symbol id="i-kanban" viewBox="0 0 24 24"><path d="M5 3v14"/>  <path d="M12 3v8"/>  <path d="M19 3v18"/></symbol>
  <symbol id="i-bar-chart" viewBox="0 0 24 24"><path d="M3 3v16a2 2 0 0 0 2 2h16"/>  <path d="M18 17V9"/>  <path d="M13 17V5"/>  <path d="M8 17v-3"/></symbol>
  <symbol id="i-layers" viewBox="0 0 24 24"><path d="M12.83 2.18a2 2 0 0 0-1.66 0L2.6 6.08a1 1 0 0 0 0 1.83l8.58 3.91a2 2 0 0 0 1.66 0l8.58-3.9a1 1 0 0 0 0-1.83z"/>  <path d="M2 12a1 1 0 0 0 .58.91l8.6 3.91a2 2 0 0 0 1.65 0l8.58-3.9A1 1 0 0 0 22 12"/>  <path d="M2 17a1 1 0 0 0 .58.91l8.6 3.91a2 2 0 0 0 1.65 0l8.58-3.9A1 1 0 0 0 22 17"/></symbol>
  <symbol id="i-circle-help" viewBox="0 0 24 24"><circle cx="12" cy="12" r="10"/>  <path d="M9.09 9a3 3 0 0 1 5.83 1c0 2-3 3-3 3"/>  <path d="M12 17h.01"/></symbol>
</svg>
